# xmcd CD database file
#
# Track frame offsets:
#	150
#	44096
#	114595
#	159365
#	209082
#	241208
#	267806
#
# Disc length: 3940 seconds
#
# Revision: 0
# Processed by: cddbd v1.5.2PL0 Copyright (c) Steve Scherf et al.
# Submitted via: CDex 1.51
#
DISCID=610f6207
DTITLE=Oruç Güvenç, Andrea Azize Güvenç - Heilende Musik aus dem Orient
DYEAR=2017
DGENRE=New Age
TTITLE0=Pentatonische Improvisation
TTITLE1=Baksi Tanz
TTITLE2=Seni Ben
TTITLE3=Veysel Karani
TTITLE4=Pir Divani
TTITLE5=Böcek Zikri
TTITLE6=Image-Musik
EXTD=YEAR: 2017
EXTT0=
EXTT1=
EXTT2=
EXTT3=
EXTT4=
EXTT5=
EXTT6=
PLAYORDER=
